<?xml version="1.0" standalone="no"?><svg xmlns="http://www.w3.org/2000/svg" viewBox="0 0 1440 320"><path fill="#0099ff" fill-opacity="1" d="M0,64L21.8,53.3C43.6,43,87,21,131,48C174.5,75,218,149,262,165.3C305.5,181,349,139,393,144C436.4,149,480,203,524,208C567.3,213,611,171,655,133.3C698.2,96,742,64,785,90.7C829.1,117,873,203,916,245.3C960,288,1004,288,1047,277.3C1090.9,267,1135,245,1178,234.7C1221.8,224,1265,224,1309,208C1352.7,192,1396,160,1418,144L1440,128L1440,320L1418.2,320C1396.4,320,1353,320,1309,320C1265.5,320,1222,320,1178,320C1134.5,320,1091,320,1047,320C1003.6,320,960,320,916,320C872.7,320,829,320,785,320C741.8,320,698,320,655,320C610.9,320,567,320,524,320C480,320,436,320,393,320C349.1,320,305,320,262,320C218.2,320,175,320,131,320C87.3,320,44,320,22,320L0,320Z"></path></svg>